# xmcd CD database file
#
# Track frame offsets:
#	150
#	33233
#	62555
#	82765
#	123405
#	148873
#	171640
#	195595
#	219070
#	247665
#	287548
#
# Disc length: 4226 seconds
#
# Revision: 0
# Processed by: cddbd v1.5.1PL0 Copyright (c) Steve Scherf et al.
# Submitted via: CDex 1.51
#
DISCID=9010800b
DTITLE=Various Artist - Jazz goes to Hollywood
DYEAR=1995
DGENRE=Jazz
TTITLE0=Neal Hefti - The Odd Couple
TTITLE1=Andre Previn - A Second Chance (Two For The Seesaw)
TTITLE2=Fred Karlin - Come Saturday Morning (The Sterile Cuckoo)
TTITLE3=Johnny Mandel - Emily (The Americanization of Emily)
TTITLE4=Lalo Schifrin - Bullit
TTITLE5=Fred Karlin - Alice's Theme (Up The Down Staircase)
TTITLE6=Jerry Fielding - Advise and Consent
TTITLE7=David Amram - Splendor in The Grass
TTITLE8=Henry Mancini - Charade
TTITLE9=Michel Legrand - What Are You Doing The Rest of Your Life? (The Happy Ending)
TTITLE10=Quincy Jones - Happy Feet (Walk, Don't Run)
EXTD=YEAR: 1995
EXTT0=
EXTT1=
EXTT2=
EXTT3=
EXTT4=
EXTT5=
EXTT6=
EXTT7=
EXTT8=
EXTT9=
EXTT10=
PLAYORDER=
